<svg width="32" height="32" viewBox="0 0 32 32" fill="none" xmlns="http://www.w3.org/2000/svg">
  <!-- Definitions for gradients and effects -->
  <defs>
    <!-- Background gradient -->
    <linearGradient id="bgGradient" x1="0%" y1="0%" x2="100%" y2="100%">
      <stop offset="0%" style="stop-color:#1A1C2C;stop-opacity:1" />
      <stop offset="100%" style="stop-color:#242641;stop-opacity:1" />
    </linearGradient>
    
    <!-- Bar gradient -->
    <linearGradient id="barGradient" x1="0%" y1="0%" x2="0%" y2="100%">
      <stop offset="0%" style="stop-color:#FF6B47;stop-opacity:1" />
      <stop offset="100%" style="stop-color:#FF4C29;stop-opacity:1" />
    </linearGradient>
    
    <!-- Energy spark gradient -->
    <linearGradient id="sparkGradient" x1="0%" y1="0%" x2="100%" y2="100%">
      <stop offset="0%" style="stop-color:#3EEBD4;stop-opacity:1" />
      <stop offset="100%" style="stop-color:#2EC4B6;stop-opacity:1" />
    </linearGradient>
    
    <!-- Drop shadow filter -->
    <filter id="shadow" x="-50%" y="-50%" width="200%" height="200%">
      <feDropShadow dx="0" dy="1" stdDeviation="1" flood-color="#000000" flood-opacity="0.3"/>
    </filter>
    
    <!-- Glow effect for spark -->
    <filter id="glow" x="-50%" y="-50%" width="200%" height="200%">
      <feGaussianBlur stdDeviation="1" result="coloredBlur"/>
      <feMerge> 
        <feMergeNode in="coloredBlur"/>
        <feMergeNode in="SourceGraphic"/>
      </feMerge>
    </filter>
  </defs>
  
  <!-- Enhanced rounded background with gradient -->
  <rect width="32" height="32" rx="8" fill="url(#bgGradient)" filter="url(#shadow)"/>
  
  <!-- Subtle inner border -->
  <rect x="0.5" y="0.5" width="31" height="31" rx="7.5" fill="none" stroke="rgba(255,255,255,0.1)" stroke-width="0.5"/>
  
  <!-- Chart bars with enhanced styling -->
  <!-- First bar: small with animation-ready styling -->
  <rect x="7.5" y="20" width="4" height="6" rx="2" fill="url(#barGradient)" filter="url(#shadow)"/>
  
  <!-- Second bar: tallest with enhanced gradient -->
  <rect x="14" y="12" width="4" height="14" rx="2" fill="url(#barGradient)" filter="url(#shadow)"/>
  
  <!-- Third bar: medium with consistent styling -->
  <rect x="20.5" y="16" width="4" height="10" rx="2" fill="url(#barGradient)" filter="url(#shadow)"/>
  
  <!-- Enhanced energy spark with glow effect -->
  <g transform="translate(22, 4) scale(0.4)" filter="url(#glow)">
    <path d="M13 2L3 14h9l-1 8 10-12h-9l1-8z" fill="url(#sparkGradient)" stroke="rgba(255,255,255,0.2)" stroke-width="0.5"/>
  </g>
  
  <!-- Subtle highlight on bars -->
  <rect x="8" y="20" width="2" height="3" rx="1" fill="rgba(255,255,255,0.2)"/>
  <rect x="14.5" y="12" width="2" height="7" rx="1" fill="rgba(255,255,255,0.2)"/>
  <rect x="21" y="16" width="2" height="5" rx="1" fill="rgba(255,255,255,0.2)"/>
</svg>